ffmpeg version 3.4.8-0ubuntu0.2 Copyright (c) 2000-2020 the FFmpeg developers
  built with gcc 7 (Ubuntu 7.5.0-3ubuntu1~18.04)
  configuration: --prefix=/usr --extra-version=0ubuntu0.2 --toolchain=hardened --libdir=/usr/lib/x86_64-linux-gnu --incdir=/usr/include/x86_64-linux-gnu --enable-gpl --disable-stripping --enable-avresample --enable-avisynth --enable-gnutls --enable-ladspa --enable-libass --enable-libbluray --enable-libbs2b --enable-libcaca --enable-libcdio --enable-libflite --enable-libfontconfig --enable-libfreetype --enable-libfribidi --enable-libgme --enable-libgsm --enable-libmp3lame --enable-libmysofa --enable-libopenjpeg --enable-libopenmpt --enable-libopus --enable-libpulse --enable-librubberband --enable-librsvg --enable-libshine --enable-libsnappy --enable-libsoxr --enable-libspeex --enable-libssh --enable-libtheora --enable-libtwolame --enable-libvorbis --enable-libvpx --enable-libwavpack --enable-libwebp --enable-libx265 --enable-libxml2 --enable-libxvid --enable-libzmq --enable-libzvbi --enable-omx --enable-openal --enable-opengl --enable-sdl2 --enable-libdc1394 --enable-libdrm --enable-libiec61883 --enable-chromaprint --enable-frei0r --enable-libopencv --enable-libx264 --enable-shared
  libavutil      55. 78.100 / 55. 78.100
  libavcodec     57.107.100 / 57.107.100
  libavformat    57. 83.100 / 57. 83.100
  libavdevice    57. 10.100 / 57. 10.100
  libavfilter     6.107.100 /  6.107.100
  libavresample   3.  7.  0 /  3.  7.  0
  libswscale      4.  8.100 /  4.  8.100
  libswresample   2.  9.100 /  2.  9.100
  libpostproc    54.  7.100 / 54.  7.100
Guessed Channel Layout for Input Stream #0.0 : stereo
Input #0, asf, from '../.././Samples/audio_codec_problem.wmv':
  Metadata:
    title           : TCTV26 - Tartalomjegyzék
    artist          : TotalCar
    copyright       : www.totalcar.hu
    WMFSDKNeeded    : 0.0.0.0000
    DeviceConformanceTemplate: @
    WM/WMADRCPeakReference: 16825
    WM/WMADRCAverageReference: 5142
    WMFSDKVersion   : 9.00.00.2926
    IsVBR           : 0
  Duration: 00:00:22.67, start: 0.000000, bitrate: 363 kb/s
    Stream #0:0(hun): Audio: wmav2 (a[1][0][0] / 0x0161), 22050 Hz, stereo, fltp, 22 kb/s
    Stream #0:1(hun): Video: wmv1 (WMV1 / 0x31564D57), yuv420p, 320x240, 319 kb/s, 14.99 fps, 14.99 tbr, 1k tbn, 1k tbc
Stream mapping:
  Stream #0:1 -> #0:0 (wmv1 (native) -> h264 (libx264))
  Stream #0:0 -> #0:1 (wmav2 (native) -> aac (native))
Press [q] to stop, [?] for help
[libx264 @ 0x5653e6b6c800] using cpu capabilities: MMX2 SSE2Fast SSSE3 SSE4.2 AVX FMA3 BMI2 AVX2
[libx264 @ 0x5653e6b6c800] profile High, level 1.2
[libx264 @ 0x5653e6b6c800] 264 - core 152 r2854 e9a5903 - H.264/MPEG-4 AVC codec - Copyleft 2003-2017 - http://www.videolan.org/x264.html - options: cabac=1 ref=3 deblock=1:0:0 analyse=0x3:0x113 me=hex subme=7 psy=1 psy_rd=1.00:0.00 mixed_ref=1 me_range=16 chroma_me=1 trellis=1 8x8dct=1 cqm=0 deadzone=21,11 fast_pskip=1 chroma_qp_offset=-2 threads=6 lookahead_threads=1 sliced_threads=0 nr=0 decimate=1 interlaced=0 bluray_compat=0 constrained_intra=0 bframes=3 b_pyramid=2 b_adapt=1 b_bias=0 direct=1 weightb=1 open_gop=0 weightp=2 keyint=250 keyint_min=14 scenecut=40 intra_refresh=0 rc_lookahead=40 rc=crf mbtree=1 crf=23.0 qcomp=0.60 qpmin=0 qpmax=69 qpstep=4 ip_ratio=1.40 aq=1:1.00
Output #0, mov, to '/home/aleksandr/Pract/Samples/audio_codec_problem.wmv_tc/output_tc3.mov':
  Metadata:
    title           : TCTV26 - Tartalomjegyzék
    artist          : TotalCar
    copyright       : www.totalcar.hu
    WMFSDKNeeded    : 0.0.0.0000
    DeviceConformanceTemplate: @
    WM/WMADRCPeakReference: 16825
    WM/WMADRCAverageReference: 5142
    WMFSDKVersion   : 9.00.00.2926
    IsVBR           : 0
    encoder         : Lavf57.83.100
    Stream #0:0(hun): Video: h264 (libx264) (avc1 / 0x31637661), yuv420p(progressive), 320x240, q=-1--1, 14.99 fps, 15k tbn, 14.99 tbc
    Metadata:
      encoder         : Lavc57.107.100 libx264
    Side data:
      cpb: bitrate max/min/avg: 0/0/0 buffer size: 0 vbv_delay: -1
    Stream #0:1(hun): Audio: aac (LC) (mp4a / 0x6134706D), 22050 Hz, stereo, fltp, 128 kb/s
    Metadata:
      encoder         : Lavc57.107.100 aac
[aac @ 0x5653e6b6d700] Queue input is backward in time
[mov @ 0x5653e6b23200] Non-monotonous DTS in output stream 0:1; previous: 5120, current: 5116; changing to 5121. This may result in incorrect timestamps in the output file.
frame=  175 fps=0.0 q=27.0 size=     256kB time=00:00:09.56 bitrate= 219.3kbits/s speed=19.1x    frame=  321 fps=318 q=27.0 size=     768kB time=00:00:19.14 bitrate= 328.7kbits/s speed=  19x    frame=  333 fps=277 q=-1.0 Lsize=    1178kB time=00:00:22.33 bitrate= 431.9kbits/s speed=18.6x    
video:820kB audio:346kB subtitle:0kB other streams:0kB global headers:0kB muxing overhead: 0.990038%
[libx264 @ 0x5653e6b6c800] frame I:8     Avg QP:19.67  size:  9888
[libx264 @ 0x5653e6b6c800] frame P:289   Avg QP:22.66  size:  2520
[libx264 @ 0x5653e6b6c800] frame B:36    Avg QP:25.25  size:   883
[libx264 @ 0x5653e6b6c800] consecutive B-frames: 83.2%  4.8%  7.2%  4.8%
[libx264 @ 0x5653e6b6c800] mb I  I16..4:  4.4% 93.1%  2.5%
[libx264 @ 0x5653e6b6c800] mb P  I16..4:  0.6%  7.0%  0.2%  P16..4: 48.4% 16.0% 11.7%  0.0%  0.0%    skip:16.1%
[libx264 @ 0x5653e6b6c800] mb B  I16..4:  0.6%  6.5%  0.1%  B16..8: 40.2%  5.9%  0.9%  direct: 3.1%  skip:42.8%  L0:49.0% L1:37.1% BI:13.9%
[libx264 @ 0x5653e6b6c800] 8x8 transform intra:90.5% inter:83.3%
[libx264 @ 0x5653e6b6c800] coded y,uvDC,uvAC intra: 78.9% 91.5% 55.6% inter: 38.7% 51.9% 15.5%
[libx264 @ 0x5653e6b6c800] i16 v,h,dc,p: 24% 35% 23% 18%
[libx264 @ 0x5653e6b6c800] i8 v,h,dc,ddl,ddr,vr,hd,vl,hu: 24% 24% 36%  3%  2%  2%  2%  3%  4%
[libx264 @ 0x5653e6b6c800] i4 v,h,dc,ddl,ddr,vr,hd,vl,hu: 26% 25% 12%  4%  7%  7%  7%  5%  6%
[libx264 @ 0x5653e6b6c800] i8c dc,h,v,p: 45% 26% 20%  8%
[libx264 @ 0x5653e6b6c800] Weighted P-Frames: Y:0.7% UV:0.7%
[libx264 @ 0x5653e6b6c800] ref P L0: 73.4% 13.4%  9.1%  4.1%
[libx264 @ 0x5653e6b6c800] ref B L0: 88.8%  8.6%  2.6%
[libx264 @ 0x5653e6b6c800] ref B L1: 98.7%  1.3%
[libx264 @ 0x5653e6b6c800] kb/s:302.13
[aac @ 0x5653e6b6d700] Qavg: 20003.586
	Command being timed: "/usr/bin/ffmpeg -i ../.././Samples/audio_codec_problem.wmv -c:v libx264 -f mov /home/aleksandr/Pract/Samples/audio_codec_problem.wmv_tc/output_tc3.mov"
	User time (seconds): 3.71
	System time (seconds): 0.05
	Percent of CPU this job got: 301%
	Elapsed (wall clock) time (h:mm:ss or m:ss): 0:01.25
	Average shared text size (kbytes): 0
	Average unshared data size (kbytes): 0
	Average stack size (kbytes): 0
	Average total size (kbytes): 0
	Maximum resident set size (kbytes): 75276
	Average resident set size (kbytes): 0
	Major (requiring I/O) page faults: 0
	Minor (reclaiming a frame) page faults: 11302
	Voluntary context switches: 2722
	Involuntary context switches: 316
	Swaps: 0
	File system inputs: 0
	File system outputs: 2376
	Socket messages sent: 0
	Socket messages received: 0
	Signals delivered: 0
	Page size (bytes): 4096
	Exit status: 0
